<mxfile host="app.diagrams.net" modified="2023-09-07T05:49:39.153Z" agent="Mozilla/5.0 (Windows NT 10.0; Win64; x64) AppleWebKit/537.36 (KHTML, like Gecko) Chrome/116.0.0.0 Safari/537.36 Edg/116.0.1938.69" etag="x4ZTpFpghvDoOePU7TDY" version="21.7.2" type="github">
  <diagram name="페이지-1" id="C4-FlIEdGIhDoYXKbcxn">
    <mxGraphModel dx="3963" dy="677" grid="0" gridSize="10" guides="1" tooltips="1" connect="1" arrows="1" fold="1" page="0" pageScale="1" pageWidth="827" pageHeight="1169" math="0" shadow="0">
      <root>
        <mxCell id="0" />
        <mxCell id="1" parent="0" />
        <mxCell id="kg9_nJXDs-pIWhOYUC0W-1" value="UT-12. 01." style="shape=umlFrame;whiteSpace=wrap;html=1;pointerEvents=0;recursiveResize=0;container=0;collapsible=0;width=160;hachureGap=4;fontFamily=Architects Daughter;fontSource=https%3A%2F%2Ffonts.googleapis.com%2Fcss%3Ffamily%3DArchitects%2BDaughter;fontSize=20;movable=1;resizable=1;rotatable=1;deletable=1;editable=1;locked=0;connectable=1;" vertex="1" parent="1">
          <mxGeometry x="62" y="1809" width="948" height="401" as="geometry" />
        </mxCell>
        <mxCell id="kg9_nJXDs-pIWhOYUC0W-2" value="DISC #1" style="shape=cylinder3;whiteSpace=wrap;html=1;boundedLbl=1;backgroundOutline=1;size=15;sketch=1;hachureGap=4;jiggle=2;curveFitting=1;fontFamily=Architects Daughter;fontSource=https%3A%2F%2Ffonts.googleapis.com%2Fcss%3Ffamily%3DArchitects%2BDaughter;fontSize=20;fillColor=#ffe6cc;strokeColor=#d79b00;" vertex="1" parent="1">
          <mxGeometry x="809" y="1843" width="98" height="80" as="geometry" />
        </mxCell>
        <mxCell id="kg9_nJXDs-pIWhOYUC0W-3" style="rounded=0;sketch=1;hachureGap=4;jiggle=2;curveFitting=1;orthogonalLoop=1;jettySize=auto;html=1;exitX=0;exitY=0;exitDx=0;exitDy=30;exitPerimeter=0;entryX=0;entryY=0;entryDx=137;entryDy=50;entryPerimeter=0;fontFamily=Architects Daughter;fontSource=https%3A%2F%2Ffonts.googleapis.com%2Fcss%3Ffamily%3DArchitects%2BDaughter;fontSize=16;" edge="1" parent="1" source="kg9_nJXDs-pIWhOYUC0W-6" target="kg9_nJXDs-pIWhOYUC0W-10">
          <mxGeometry relative="1" as="geometry" />
        </mxCell>
        <mxCell id="kg9_nJXDs-pIWhOYUC0W-4" style="edgeStyle=none;shape=connector;rounded=0;sketch=1;hachureGap=4;jiggle=2;curveFitting=1;orthogonalLoop=1;jettySize=auto;html=1;entryX=0;entryY=0;entryDx=137;entryDy=50;entryPerimeter=0;labelBackgroundColor=default;strokeColor=default;fontFamily=Architects Daughter;fontSource=https%3A%2F%2Ffonts.googleapis.com%2Fcss%3Ffamily%3DArchitects%2BDaughter;fontSize=16;fontColor=default;endArrow=classic;" edge="1" parent="1" source="kg9_nJXDs-pIWhOYUC0W-6" target="kg9_nJXDs-pIWhOYUC0W-12">
          <mxGeometry relative="1" as="geometry" />
        </mxCell>
        <mxCell id="kg9_nJXDs-pIWhOYUC0W-5" style="edgeStyle=none;shape=connector;rounded=0;sketch=1;hachureGap=4;jiggle=2;curveFitting=1;orthogonalLoop=1;jettySize=auto;html=1;entryX=0;entryY=0;entryDx=137;entryDy=50;entryPerimeter=0;labelBackgroundColor=default;strokeColor=default;fontFamily=Architects Daughter;fontSource=https%3A%2F%2Ffonts.googleapis.com%2Fcss%3Ffamily%3DArchitects%2BDaughter;fontSize=16;fontColor=default;endArrow=classic;exitX=-0.022;exitY=0.665;exitDx=0;exitDy=0;exitPerimeter=0;" edge="1" parent="1" source="kg9_nJXDs-pIWhOYUC0W-6" target="kg9_nJXDs-pIWhOYUC0W-15">
          <mxGeometry relative="1" as="geometry" />
        </mxCell>
        <mxCell id="kg9_nJXDs-pIWhOYUC0W-6" value="API&lt;br&gt;Gateway" style="shape=cube;whiteSpace=wrap;html=1;boundedLbl=1;backgroundOutline=1;darkOpacity=0.05;darkOpacity2=0.1;sketch=1;hachureGap=4;jiggle=2;curveFitting=1;fontFamily=Architects Daughter;fontSource=https%3A%2F%2Ffonts.googleapis.com%2Fcss%3Ffamily%3DArchitects%2BDaughter;fontSize=20;direction=east;flipH=1;fillColor=#d5e8d4;strokeColor=#82b366;" vertex="1" parent="1">
          <mxGeometry x="168" y="1979" width="120" height="80" as="geometry" />
        </mxCell>
        <mxCell id="kg9_nJXDs-pIWhOYUC0W-7" style="rounded=0;sketch=1;hachureGap=4;jiggle=2;curveFitting=1;orthogonalLoop=1;jettySize=auto;html=1;entryX=0;entryY=0.5;entryDx=0;entryDy=0;entryPerimeter=0;fontFamily=Architects Daughter;fontSource=https%3A%2F%2Ffonts.googleapis.com%2Fcss%3Ffamily%3DArchitects%2BDaughter;fontSize=16;" edge="1" parent="1" source="kg9_nJXDs-pIWhOYUC0W-10" target="kg9_nJXDs-pIWhOYUC0W-2">
          <mxGeometry relative="1" as="geometry" />
        </mxCell>
        <mxCell id="kg9_nJXDs-pIWhOYUC0W-8" style="rounded=0;sketch=1;hachureGap=4;jiggle=2;curveFitting=1;orthogonalLoop=1;jettySize=auto;html=1;entryX=0;entryY=0;entryDx=58.5;entryDy=0;entryPerimeter=0;fontFamily=Architects Daughter;fontSource=https%3A%2F%2Ffonts.googleapis.com%2Fcss%3Ffamily%3DArchitects%2BDaughter;fontSize=16;" edge="1" parent="1" source="kg9_nJXDs-pIWhOYUC0W-10" target="kg9_nJXDs-pIWhOYUC0W-12">
          <mxGeometry relative="1" as="geometry" />
        </mxCell>
        <mxCell id="kg9_nJXDs-pIWhOYUC0W-9" style="rounded=0;sketch=1;hachureGap=4;jiggle=2;curveFitting=1;orthogonalLoop=1;jettySize=auto;html=1;entryX=0;entryY=0;entryDx=58.5;entryDy=0;entryPerimeter=0;fontFamily=Architects Daughter;fontSource=https%3A%2F%2Ffonts.googleapis.com%2Fcss%3Ffamily%3DArchitects%2BDaughter;fontSize=16;" edge="1" parent="1" source="kg9_nJXDs-pIWhOYUC0W-10" target="kg9_nJXDs-pIWhOYUC0W-15">
          <mxGeometry relative="1" as="geometry" />
        </mxCell>
        <mxCell id="kg9_nJXDs-pIWhOYUC0W-10" value="Station&lt;br&gt;Parking" style="shape=cube;whiteSpace=wrap;html=1;boundedLbl=1;backgroundOutline=1;darkOpacity=0.05;darkOpacity2=0.1;sketch=1;hachureGap=4;jiggle=2;curveFitting=1;fontFamily=Architects Daughter;fontSource=https%3A%2F%2Ffonts.googleapis.com%2Fcss%3Ffamily%3DArchitects%2BDaughter;fontSize=20;direction=east;flipH=1;fillColor=#dae8fc;strokeColor=#6c8ebf;" vertex="1" parent="1">
          <mxGeometry x="524" y="1841" width="137" height="80" as="geometry" />
        </mxCell>
        <mxCell id="kg9_nJXDs-pIWhOYUC0W-11" style="rounded=0;sketch=1;hachureGap=4;jiggle=2;curveFitting=1;orthogonalLoop=1;jettySize=auto;html=1;entryX=0;entryY=0.5;entryDx=0;entryDy=0;entryPerimeter=0;fontFamily=Architects Daughter;fontSource=https%3A%2F%2Ffonts.googleapis.com%2Fcss%3Ffamily%3DArchitects%2BDaughter;fontSize=16;" edge="1" parent="1" source="kg9_nJXDs-pIWhOYUC0W-12" target="kg9_nJXDs-pIWhOYUC0W-16">
          <mxGeometry relative="1" as="geometry" />
        </mxCell>
        <mxCell id="kg9_nJXDs-pIWhOYUC0W-12" value="Station&lt;br&gt;Charging" style="shape=cube;whiteSpace=wrap;html=1;boundedLbl=1;backgroundOutline=1;darkOpacity=0.05;darkOpacity2=0.1;sketch=1;hachureGap=4;jiggle=2;curveFitting=1;fontFamily=Architects Daughter;fontSource=https%3A%2F%2Ffonts.googleapis.com%2Fcss%3Ffamily%3DArchitects%2BDaughter;fontSize=20;direction=east;flipH=1;fillColor=#e1d5e7;strokeColor=#9673a6;" vertex="1" parent="1">
          <mxGeometry x="406" y="1979" width="137" height="80" as="geometry" />
        </mxCell>
        <mxCell id="kg9_nJXDs-pIWhOYUC0W-13" style="rounded=0;sketch=1;hachureGap=4;jiggle=2;curveFitting=1;orthogonalLoop=1;jettySize=auto;html=1;entryX=0;entryY=0;entryDx=0;entryDy=52.5;entryPerimeter=0;fontFamily=Architects Daughter;fontSource=https%3A%2F%2Ffonts.googleapis.com%2Fcss%3Ffamily%3DArchitects%2BDaughter;fontSize=16;" edge="1" parent="1" source="kg9_nJXDs-pIWhOYUC0W-15" target="kg9_nJXDs-pIWhOYUC0W-16">
          <mxGeometry relative="1" as="geometry" />
        </mxCell>
        <mxCell id="kg9_nJXDs-pIWhOYUC0W-14" style="rounded=0;sketch=1;hachureGap=4;jiggle=2;curveFitting=1;orthogonalLoop=1;jettySize=auto;html=1;exitX=0;exitY=0;exitDx=117;exitDy=0;exitPerimeter=0;entryX=0.334;entryY=1.018;entryDx=0;entryDy=0;entryPerimeter=0;fontFamily=Architects Daughter;fontSource=https%3A%2F%2Ffonts.googleapis.com%2Fcss%3Ffamily%3DArchitects%2BDaughter;fontSize=16;" edge="1" parent="1" source="kg9_nJXDs-pIWhOYUC0W-15" target="kg9_nJXDs-pIWhOYUC0W-12">
          <mxGeometry relative="1" as="geometry" />
        </mxCell>
        <mxCell id="kg9_nJXDs-pIWhOYUC0W-15" value="Station&lt;br&gt;Security" style="shape=cube;whiteSpace=wrap;html=1;boundedLbl=1;backgroundOutline=1;darkOpacity=0.05;darkOpacity2=0.1;sketch=1;hachureGap=4;jiggle=2;curveFitting=1;fontFamily=Architects Daughter;fontSource=https%3A%2F%2Ffonts.googleapis.com%2Fcss%3Ffamily%3DArchitects%2BDaughter;fontSize=20;direction=east;flipH=1;fillColor=#f8cecc;strokeColor=#b85450;" vertex="1" parent="1">
          <mxGeometry x="522" y="2107" width="137" height="80" as="geometry" />
        </mxCell>
        <mxCell id="kg9_nJXDs-pIWhOYUC0W-16" value="DISC #2" style="shape=cylinder3;whiteSpace=wrap;html=1;boundedLbl=1;backgroundOutline=1;size=15;sketch=1;hachureGap=4;jiggle=2;curveFitting=1;fontFamily=Architects Daughter;fontSource=https%3A%2F%2Ffonts.googleapis.com%2Fcss%3Ffamily%3DArchitects%2BDaughter;fontSize=20;fillColor=#ffe6cc;strokeColor=#d79b00;" vertex="1" parent="1">
          <mxGeometry x="809" y="2027" width="98" height="80" as="geometry" />
        </mxCell>
        <mxCell id="kg9_nJXDs-pIWhOYUC0W-17" value="UT-12. 02." style="shape=umlFrame;whiteSpace=wrap;html=1;pointerEvents=0;recursiveResize=0;container=0;collapsible=0;width=160;hachureGap=4;fontFamily=Architects Daughter;fontSource=https%3A%2F%2Ffonts.googleapis.com%2Fcss%3Ffamily%3DArchitects%2BDaughter;fontSize=20;movable=1;resizable=1;rotatable=1;deletable=1;editable=1;locked=0;connectable=1;" vertex="1" parent="1">
          <mxGeometry x="62" y="2323" width="948" height="401" as="geometry" />
        </mxCell>
        <mxCell id="kg9_nJXDs-pIWhOYUC0W-18" value="DISC #1" style="shape=cylinder3;whiteSpace=wrap;html=1;boundedLbl=1;backgroundOutline=1;size=15;sketch=1;hachureGap=4;jiggle=2;curveFitting=1;fontFamily=Architects Daughter;fontSource=https%3A%2F%2Ffonts.googleapis.com%2Fcss%3Ffamily%3DArchitects%2BDaughter;fontSize=20;fillColor=#ffe6cc;strokeColor=#d79b00;" vertex="1" parent="1">
          <mxGeometry x="869" y="2400" width="98" height="80" as="geometry" />
        </mxCell>
        <mxCell id="kg9_nJXDs-pIWhOYUC0W-35" style="rounded=0;orthogonalLoop=1;jettySize=auto;html=1;exitX=0;exitY=0;exitDx=0;exitDy=37;exitPerimeter=0;entryX=0;entryY=0.5;entryDx=0;entryDy=0;sketch=1;curveFitting=1;jiggle=2;" edge="1" parent="1" source="kg9_nJXDs-pIWhOYUC0W-22" target="kg9_nJXDs-pIWhOYUC0W-34">
          <mxGeometry relative="1" as="geometry" />
        </mxCell>
        <mxCell id="kg9_nJXDs-pIWhOYUC0W-36" style="edgeStyle=none;shape=connector;rounded=0;sketch=1;jiggle=2;curveFitting=1;orthogonalLoop=1;jettySize=auto;html=1;exitX=0;exitY=0;exitDx=0;exitDy=37;exitPerimeter=0;entryX=0;entryY=0.5;entryDx=0;entryDy=0;labelBackgroundColor=default;strokeColor=default;fontFamily=Helvetica;fontSize=11;fontColor=default;endArrow=classic;" edge="1" parent="1" source="kg9_nJXDs-pIWhOYUC0W-22" target="kg9_nJXDs-pIWhOYUC0W-33">
          <mxGeometry relative="1" as="geometry" />
        </mxCell>
        <mxCell id="kg9_nJXDs-pIWhOYUC0W-22" value="K8S&lt;br&gt;Control&lt;br&gt;Plane" style="shape=cube;whiteSpace=wrap;html=1;boundedLbl=1;backgroundOutline=1;darkOpacity=0.05;darkOpacity2=0.1;sketch=1;hachureGap=4;jiggle=2;curveFitting=1;fontFamily=Architects Daughter;fontSource=https%3A%2F%2Ffonts.googleapis.com%2Fcss%3Ffamily%3DArchitects%2BDaughter;fontSize=20;direction=east;flipH=1;fillColor=#d5e8d4;strokeColor=#82b366;" vertex="1" parent="1">
          <mxGeometry x="155" y="2487" width="141" height="94" as="geometry" />
        </mxCell>
        <mxCell id="kg9_nJXDs-pIWhOYUC0W-32" value="DISC #2" style="shape=cylinder3;whiteSpace=wrap;html=1;boundedLbl=1;backgroundOutline=1;size=15;sketch=1;hachureGap=4;jiggle=2;curveFitting=1;fontFamily=Architects Daughter;fontSource=https%3A%2F%2Ffonts.googleapis.com%2Fcss%3Ffamily%3DArchitects%2BDaughter;fontSize=20;fillColor=#ffe6cc;strokeColor=#d79b00;" vertex="1" parent="1">
          <mxGeometry x="869" y="2581" width="98" height="80" as="geometry" />
        </mxCell>
        <mxCell id="kg9_nJXDs-pIWhOYUC0W-37" style="edgeStyle=none;shape=connector;rounded=0;sketch=1;jiggle=2;curveFitting=1;orthogonalLoop=1;jettySize=auto;html=1;exitX=1;exitY=0.5;exitDx=0;exitDy=0;entryX=0;entryY=0.5;entryDx=0;entryDy=0;entryPerimeter=0;labelBackgroundColor=default;strokeColor=default;fontFamily=Helvetica;fontSize=11;fontColor=default;endArrow=classic;" edge="1" parent="1" source="kg9_nJXDs-pIWhOYUC0W-33" target="kg9_nJXDs-pIWhOYUC0W-32">
          <mxGeometry relative="1" as="geometry" />
        </mxCell>
        <mxCell id="kg9_nJXDs-pIWhOYUC0W-38" style="edgeStyle=none;shape=connector;rounded=0;sketch=1;jiggle=2;curveFitting=1;orthogonalLoop=1;jettySize=auto;html=1;exitX=1;exitY=0.5;exitDx=0;exitDy=0;entryX=0;entryY=0.5;entryDx=0;entryDy=0;entryPerimeter=0;labelBackgroundColor=default;strokeColor=default;fontFamily=Helvetica;fontSize=11;fontColor=default;endArrow=classic;" edge="1" parent="1" source="kg9_nJXDs-pIWhOYUC0W-33" target="kg9_nJXDs-pIWhOYUC0W-18">
          <mxGeometry relative="1" as="geometry" />
        </mxCell>
        <mxCell id="kg9_nJXDs-pIWhOYUC0W-33" value="K8S Node 2" style="rounded=1;whiteSpace=wrap;html=1;sketch=1;curveFitting=1;jiggle=2;verticalAlign=top;fontSize=15;fontStyle=1" vertex="1" parent="1">
          <mxGeometry x="395" y="2484.5" width="244" height="228" as="geometry" />
        </mxCell>
        <mxCell id="kg9_nJXDs-pIWhOYUC0W-39" style="edgeStyle=none;shape=connector;rounded=0;sketch=1;jiggle=2;curveFitting=1;orthogonalLoop=1;jettySize=auto;html=1;exitX=1;exitY=0.5;exitDx=0;exitDy=0;entryX=0;entryY=0;entryDx=0;entryDy=27.5;entryPerimeter=0;labelBackgroundColor=default;strokeColor=default;fontFamily=Helvetica;fontSize=11;fontColor=default;endArrow=classic;" edge="1" parent="1" source="kg9_nJXDs-pIWhOYUC0W-34" target="kg9_nJXDs-pIWhOYUC0W-18">
          <mxGeometry relative="1" as="geometry" />
        </mxCell>
        <mxCell id="kg9_nJXDs-pIWhOYUC0W-34" value="K8S Node 1" style="rounded=1;whiteSpace=wrap;html=1;sketch=1;curveFitting=1;jiggle=2;verticalAlign=top;fontSize=15;fontStyle=1" vertex="1" parent="1">
          <mxGeometry x="396" y="2334.5" width="245" height="137.5" as="geometry" />
        </mxCell>
        <mxCell id="kg9_nJXDs-pIWhOYUC0W-28" value="Station&lt;br&gt;Charging" style="shape=cube;whiteSpace=wrap;html=1;boundedLbl=1;backgroundOutline=1;darkOpacity=0.05;darkOpacity2=0.1;sketch=1;hachureGap=4;jiggle=2;curveFitting=1;fontFamily=Architects Daughter;fontSource=https%3A%2F%2Ffonts.googleapis.com%2Fcss%3Ffamily%3DArchitects%2BDaughter;fontSize=20;direction=east;flipH=1;fillColor=#e1d5e7;strokeColor=#9673a6;" vertex="1" parent="1">
          <mxGeometry x="414" y="2614.5" width="207" height="80" as="geometry" />
        </mxCell>
        <mxCell id="kg9_nJXDs-pIWhOYUC0W-31" value="Station&lt;br&gt;Security" style="shape=cube;whiteSpace=wrap;html=1;boundedLbl=1;backgroundOutline=1;darkOpacity=0.05;darkOpacity2=0.1;sketch=1;hachureGap=4;jiggle=2;curveFitting=1;fontFamily=Architects Daughter;fontSource=https%3A%2F%2Ffonts.googleapis.com%2Fcss%3Ffamily%3DArchitects%2BDaughter;fontSize=20;direction=east;flipH=1;fillColor=#f8cecc;strokeColor=#b85450;" vertex="1" parent="1">
          <mxGeometry x="418" y="2518.5" width="201" height="80" as="geometry" />
        </mxCell>
        <mxCell id="kg9_nJXDs-pIWhOYUC0W-26" value="Station&lt;br&gt;Parking" style="shape=cube;whiteSpace=wrap;html=1;boundedLbl=1;backgroundOutline=1;darkOpacity=0.05;darkOpacity2=0.1;sketch=1;hachureGap=4;jiggle=2;curveFitting=1;fontFamily=Architects Daughter;fontSource=https%3A%2F%2Ffonts.googleapis.com%2Fcss%3Ffamily%3DArchitects%2BDaughter;fontSize=20;direction=east;flipH=1;fillColor=#dae8fc;strokeColor=#6c8ebf;" vertex="1" parent="1">
          <mxGeometry x="415" y="2370" width="204" height="80" as="geometry" />
        </mxCell>
      </root>
    </mxGraphModel>
  </diagram>
</mxfile>
